<svg xmlns="http://www.w3.org/2000/svg" version="1.1" xmlns:xlink="http://www.w3.org/1999/xlink" xmlns:svgjs="http://svgjs.dev/svgjs" width="1500" height="1682" viewBox="0 0 1500 1682"><g transform="matrix(1,0,0,1,-2.336338785046678,0)"><svg viewBox="0 0 321 360" data-background-color="#dedede" preserveAspectRatio="xMidYMid meet" height="1682" width="1500" xmlns="http://www.w3.org/2000/svg" xmlns:xlink="http://www.w3.org/1999/xlink"><g id="tight-bounds" transform="matrix(1,0,0,1,0.5000234999999975,0)"><svg viewBox="0 0 320 360" height="360" width="320"><g><svg></svg></g><g><svg viewBox="0 0 320 360" height="360" width="320"><g><path transform="translate(-74.99272,-51.79039) scale(4.65793,4.65793)" d="M20.6 59.9l0.8 1-0.4-1.3c-0.1-0.6-0.8 0.1-0.4 0.3M21.5 59.3c0.3 0.5 0.6 1 0.6 1.5 0 0.7 0.6 1 1.1 1.2-0.7-0.8-1.1-3-1.7-2.7M59.9 16.9c1.7 0 3.3-0.2 5.1 0.2 4.4 1.1 8.1 3.3 10.6 6.4l7 11.2c0.3 2.8 0.9 5.9 0.8 9.3 0.7 0 0.6-1 1.4-1.2-0.8 2-1.2 4.5-1.4 7.4-0.5-1.6 0-4 0.1-5.3-0.7 1.1-1.1 0.3-1.1-0.2 0.1-0.8-0.3-0.7-0.6-1-1.1-1-1.8-2.1-2.6-3.8 0.5-1.3 0.6-3.2-1-4.2-0.5-0.3-1.1-0.8-1.4-1.6-0.4-1.1-1.1-2.4-0.9-4.1 0.1-0.5-1.5 1.1-2.4 0.4-3.9-2.7-7.8-5.8-12.5-8.4-2.5 0-4.3-0.9-5.2-2-0.8-1-0.2-2.3 1-2.4 0.7 0 1.5-0.2 2.1 0.2 0.1-0.4 0.5-0.9 1-0.9M50 14.6l0.2 0.1c1 0.2 1.5 1.6 2.6 1.1 0 0.7 0.1 1.4-0.1 1.9-0.3 0.8-1.2 0.8-1.9 0.8-6.7-0.4-10.6 2.4-14.7 4.8-1.1 0.7-2.3 1.2-3.2 2.1-4.3 4-9 7.7-10.1 15.1l-0.9 8.2c-0.1 0.9-1.1 1.8-0.9 2.9l0.7 4.9c-0.7-0.7-1.1 0.2-0.9 0.6 0.1 0.3 0.5 1.3 1.1 0.4 0.8 1.5 1.6 4.4 2.7 5.7 3.4 4 7.8 7.6 11.4 11.2 0.9-0.2 1.6-0.2 1.8-0.8 0.3 0.6-0.3 1.2-0.8 1.3 1.6 1 3.4 1.9 5.8 2.1 3.1 0.2 6 0.7 8.7 1.4 1.4-0.4 2.8-0.6 4.3-0.7 0.5 0 0.8-0.8 1.4-1l0.1-1c0.6 0.9 0.5-0.3 0.1-0.9 0.7 0.6 0.9 1.1 1.2 1.5 0-0.3 0.8-1.4 0.8-0.1l0.2-1.3c0.3-0.2 0.4 1.1 0.7 0.2 0.3-0.9 0.9-0.2 1.5-0.5-0.2 0.4-0.1 1.2 0.6 0.7l0.8-0.7c0.5 1.2 1.3 0.7 1.7 0.5 4.4-2.8 8.8-6.1 13-9.4l-0.1 1.3 0.5-1.6c0.5 0.5 0.9 0.1 1.1-0.2 0.6-1 1.4-2 2.7-2.9-1.6 4.3-3.5 7.7-5.9 10.5l-1 1.2c0 0.7-0.2 1.6-1 1.7-0.4 0.1-1.2-0.2-1.8 0.4-0.3 0.4 0.7 1.2-0.1 0.6-0.7-0.5-1.4 0-2.2 0.2-0.6 0.2 0.4 0.8 0.6 1.2 0.2 0.4 0.4 0.8 0.3 1.3l-1.1-1.2c-1.3 0.7-2.1 2-3.2 3-0.5 0.4-0.3 1.1-0.3 1.7-0.7 0-1.5-0.2-1.9 0.2-0.3 0.4-0.2 1-0.2 1.6-1-0.1-1.1-1.6-2-1.3-0.9 0.2-1.9 0.3-2.7 0.8 0.6 1.2-1 0.5-0.8 0.7-1.5-0.9-2.8-1.6-4.4-1-3.4-1.1-7.6-0.6-10.7-0.2 0-0.5 0.1-1-0.1-1.1-0.2 0.5-0.8 0.3-0.7 0.3-1.9-1.3-3.8-2.1-5.8-3.2-1.8 0.2-3.5-0.7-4-1.2-1.4-1.3-3-0.6-4.3-0.9-2.8-0.7-3.8-3.6-4.1-5.6-0.2-1-1-1.4-1.3-1.3-1.3-4.2-3.3-8-4.9-11.9-0.4-1-0.3-2-0.3-3.1 0.5 0.2 1 0.1 0.9-0.6-0.5-3.3-1.7-5.8-3-8.2 0.7-3.4 0.8-7.4 2.4-10.4 1.4-2.7 4-4.1 5.8-6.4 0.6-0.8 0.6-1.9 1.2-2.6 2-2 4-4.1 6.2-5.9 1-0.8 2.2 0 3.7-0.3 0.5-1.8 2.5-3.4 4.4-2.9 0.8 0.2 2.4-1.9 2.9-2.1 0.8-0.3 0.4 0.8 0.4 1.5 1.9-1.5 4.5-2.3 6.9-3.2" fill="#3b1898" fill-rule="nonzero" stroke="none" stroke-width="1" stroke-linecap="butt" stroke-linejoin="miter" stroke-miterlimit="10" stroke-dasharray="" stroke-dashoffset="0" font-family="none" font-weight="none" font-size="none" text-anchor="none" style="mix-blend-mode: normal" data-fill-palette-color="tertiary"></path></g><g transform="matrix(1,0,0,1,64,143.32228227068833)"><svg viewBox="0 0 192 73.35543545862336" height="73.35543545862336" width="192"><g><svg viewBox="0 0 192 73.35543545862336" height="73.35543545862336" width="192"><g><svg viewBox="0 0 192 73.35543545862336" height="73.35543545862336" width="192"><g transform="matrix(1,0,0,1,0,45.983432365042546)"><svg viewBox="0 0 192 27.372003093580823" height="27.372003093580823" width="192"><g id="textblocktransform"><svg viewBox="0 0 192 27.372003093580823" height="27.372003093580823" width="192" id="textblock"><g><svg viewBox="0 0 192 27.372003093580823" height="27.372003093580823" width="192"><g transform="matrix(1,0,0,1,0,0)"><svg width="192" viewBox="1.88 -39.79 284.08 40.5" height="27.372003093580823" data-palette-color="#3b1898"><path d="M20.14 0.71L20.14 0.71Q18.14 0.71 16.72 0.42 15.31 0.12 14.1-0.54 12.89-1.2 11.52-2.25L11.52-2.25 10.67 0 2.78 0 2.78-11.89 10.62-11.89Q11.38-9.84 12.95-9 14.53-8.15 16.82-8.15L16.82-8.15Q18.24-8.15 19.24-8.73 20.24-9.3 20.24-10.25L20.24-10.25Q20.24-11.45 19.21-12.05 18.19-12.65 16.33-13.16L16.33-13.16Q13.96-13.79 12.05-14.5 10.13-15.21 8.62-15.97L8.62-15.97Q5.59-17.48 3.74-20.26 1.88-23.05 1.88-27.66L1.88-27.66Q1.88-31.2 3.42-33.91L3.42-33.91Q4.93-36.6 7.78-38.1 10.62-39.6 14.48-39.6L14.48-39.6Q19.19-39.6 21.92-36.6L21.92-36.6 23.17-38.89 30.18-38.89 30.18-27.25 22.68-27.25Q21.63-29.44 20.36-30.3 19.09-31.15 16.87-31.15L16.87-31.15Q15.19-31.15 14.26-30.55 13.33-29.96 13.33-28.91L13.33-28.91Q13.33-27.73 14.67-27.12L14.67-27.12Q15.99-26.49 18.43-25.95L18.43-25.95Q22.71-24.98 25.81-23.49L25.81-23.49Q28.83-22 30.65-19.27 32.47-16.55 32.47-12.26L32.47-12.26Q32.47-8.62 30.96-5.66L30.96-5.66Q29.42-2.71 26.6-1 23.78 0.71 20.14 0.71ZM50.95 0.44L50.95 0.44Q46.51 0.44 43.21-1.2L43.21-1.2Q39.87-2.81 38.01-5.93 36.15-9.06 36.15-13.35L36.15-13.35Q36.15-17.63 38.01-20.61L38.01-20.61Q39.87-23.61 43.21-25.13 46.56-26.66 50.95-26.66L50.95-26.66Q55.47-26.66 58.8-25.1 62.13-23.54 63.96-20.57 65.79-17.6 65.79-13.35L65.79-13.35Q65.79-9.06 63.96-5.93L63.96-5.93Q62.11-2.81 58.75-1.18 55.39 0.44 50.95 0.44ZM50.95-6.69L50.95-6.69Q52.56-6.69 53.34-8.28L53.34-8.28Q54.1-9.81 54.1-13.35L54.1-13.35Q54.1-16.6 53.35-18.05 52.61-19.51 50.95-19.51L50.95-19.51Q49.36-19.51 48.61-18.05 47.85-16.6 47.85-13.35L47.85-13.35Q47.85-9.89 48.63-8.28L48.63-8.28Q49.41-6.69 50.95-6.69ZM84.05 0.44L84.05 0.44Q79.58 0.44 76.26-1.27L76.26-1.27Q72.92-2.95 71.06-6.05 69.21-9.16 69.21-13.35L69.21-13.35Q69.21-17.14 70.77-20.17L70.77-20.17Q72.31-23.19 75.18-24.93 78.05-26.66 81.86-26.66L81.86-26.66Q83.3-26.66 84.91-26.31 86.52-25.95 87.8-25.27 89.08-24.58 89.5-23.56L89.5-23.56 90.5-26.15 95.82-26.15 95.82-15.36 88.76-15.36Q88.57-17.31 87.62-18.41 86.66-19.51 85.25-19.51L85.25-19.51Q83.15-19.51 82.05-18.18 80.95-16.85 80.95-13.31L80.95-13.31Q80.95-10.86 81.84-9.46 82.73-8.06 84.16-7.46 85.59-6.86 87.2-6.86L87.2-6.86Q88.96-6.86 91.01-7.48 93.06-8.11 94.65-9.45L94.65-9.45 95.01-9.2 95.01-2.39Q95.01-2.29 93.53-1.56L93.53-1.56Q92.04-0.81 89.57-0.18 87.1 0.44 84.05 0.44ZM109.27-28.71L109.27-28.71Q106.22-28.71 104.24-30.15 102.26-31.59 102.26-34.3L102.26-34.3Q102.26-37.01 104.24-38.4 106.22-39.79 109.32-39.79L109.32-39.79Q112.42-39.79 114.36-38.43 116.3-37.06 116.3-34.3L116.3-34.3Q116.3-31.59 114.31-30.15 112.32-28.71 109.27-28.71ZM115.1-7.35L118.25-7.35 118.25 0 100.26 0 100.26-7.35 103.41-7.35 103.41-18.6 100.26-18.6 100.26-24.61 115.1-26.15 115.1-7.35ZM130.73 0.44L130.73 0.44Q128.24 0.44 126.21-0.54L126.21-0.54Q124.16-1.49 122.94-3.3 121.72-5.1 121.72-7.5L121.72-7.5Q121.72-10.08 123.16-11.89L123.16-11.89Q124.6-13.65 126.93-14.53 129.26-15.41 131.97-15.41L131.97-15.41Q135.17-15.41 138.12-14.45L138.12-14.45 138.12-15.55Q138.12-17.5 136.48-18.53 134.83-19.56 132.02-19.56L132.02-19.56Q130.82-19.56 129.34-19.26 127.85-18.97 126.43-18.46 125.01-17.94 123.96-17.31L123.96-17.31 123.26-17.6 123.26-24.71Q126.21-25.76 129.29-26.21 132.36-26.66 135.02-26.66L135.02-26.66Q149.87-26.66 149.87-18.31L149.87-18.31 149.87-7.35 152.16-7.35 152.16 0 139.66 0 138.56-4Q137.51-1.95 135.29-0.76 133.07 0.44 130.73 0.44ZM135.32-5.81L135.32-5.81Q136.12-5.81 136.97-6.08 137.81-6.35 138.12-6.64L138.12-6.64 138.12-10.74Q137.76-10.79 136.95-11.04L136.95-11.04Q136.12-11.25 135.51-11.25L135.51-11.25Q134.22-11.25 133.45-10.45 132.68-9.64 132.68-8.3L132.68-8.3Q132.68-7.3 133.4-6.56 134.12-5.81 135.32-5.81ZM172.16-7.35L175.92-7.35 175.92 0 156.16 0 156.16-7.35 160.46-7.35 160.46-29.86 156.16-29.86 156.16-36.5 172.16-38.11 172.16-7.35ZM197.93 0.71L197.93 0.71Q195.93 0.71 194.52 0.42 193.1 0.12 191.89-0.54 190.68-1.2 189.32-2.25L189.32-2.25 188.46 0 180.58 0 180.58-11.89 188.41-11.89Q189.17-9.84 190.74-9 192.32-8.15 194.61-8.15L194.61-8.15Q196.03-8.15 197.03-8.73 198.03-9.3 198.03-10.25L198.03-10.25Q198.03-11.45 197.01-12.05 195.98-12.65 194.13-13.16L194.13-13.16Q191.76-13.79 189.84-14.5 187.92-15.21 186.41-15.97L186.41-15.97Q183.38-17.48 181.53-20.26 179.67-23.05 179.67-27.66L179.67-27.66Q179.67-31.2 181.21-33.91L181.21-33.91Q182.72-36.6 185.57-38.1 188.41-39.6 192.27-39.6L192.27-39.6Q196.98-39.6 199.72-36.6L199.72-36.6 200.96-38.89 207.97-38.89 207.97-27.25 200.47-27.25Q199.42-29.44 198.15-30.3 196.88-31.15 194.66-31.15L194.66-31.15Q192.98-31.15 192.05-30.55 191.12-29.96 191.12-28.91L191.12-28.91Q191.12-27.73 192.47-27.12L192.47-27.12Q193.78-26.49 196.23-25.95L196.23-25.95Q200.5-24.98 203.6-23.49L203.6-23.49Q206.63-22 208.44-19.27 210.26-16.55 210.26-12.26L210.26-12.26Q210.26-8.62 208.75-5.66L208.75-5.66Q207.21-2.71 204.39-1 201.57 0.71 197.93 0.71ZM223.22-28.71L223.22-28.71Q220.17-28.71 218.2-30.15 216.22-31.59 216.22-34.3L216.22-34.3Q216.22-37.01 218.2-38.4 220.17-39.79 223.27-39.79L223.27-39.79Q226.37-39.79 228.32-38.43 230.26-37.06 230.26-34.3L230.26-34.3Q230.26-31.59 228.27-30.15 226.28-28.71 223.22-28.71ZM229.06-7.35L232.21-7.35 232.21 0 214.22 0 214.22-7.35 217.37-7.35 217.37-18.6 214.22-18.6 214.22-24.61 229.06-26.15 229.06-7.35ZM247.88 0.44L247.88 0.44Q238.48 0.44 238.48-9.35L238.48-9.35 238.48-18.99 234.57-18.99 234.57-26.15 238.48-26.15 238.48-31.74 250.18-34.35 250.18-26.15 254.86-26.15 254.86-18.99 250.18-18.99 250.18-10.21Q250.18-9.11 251.01-8.37 251.84-7.64 253.08-7.64L253.08-7.64Q253.98-7.64 254.86-7.79L254.86-7.79 254.86-1Q251.64 0.44 247.88 0.44ZM273.46 0.44L273.46 0.44Q268.92 0.44 265.58-1.25L265.58-1.25Q262.21-2.91 260.41-6.01 258.62-9.11 258.62-13.26L258.62-13.26Q258.62-17.36 260.38-20.39L260.38-20.39Q262.11-23.39 265.29-25.02 268.46-26.66 272.73-26.66L272.73-26.66Q276.66-26.66 279.67-25.12L279.67-25.12Q282.67-23.56 284.32-20.7 285.96-17.85 285.96-14.04L285.96-14.04Q285.96-12.72 285.57-11.55L285.57-11.55 270.36-11.55Q270.36-9.25 272.1-7.87 273.83-6.49 276.27-6.49L276.27-6.49Q278.13-6.49 280.35-7.14 282.57-7.79 284.82-9.16L284.82-9.16 285.23-9.01 285.23-2.44Q282.72-1 280.07-0.28 277.42 0.44 273.46 0.44ZM270.36-16.55L270.36-16.55 270.36-15.84 276.61-15.84 276.61-16.36Q276.61-18.09 275.82-19.35 275.03-20.61 273.46-20.61L273.46-20.61Q272.17-20.61 271.27-19.32 270.36-18.04 270.36-16.55Z" opacity="1" transform="matrix(1,0,0,1,0,0)" fill="#3b1898" class="wordmark-text-0" data-fill-palette-color="primary" id="text-0"></path></svg></g></svg></g></svg></g></svg></g><g transform="matrix(1,0,0,1,68.83057109736325,0)"><svg viewBox="0 0 54.338857805273506 41.989200185614855" height="41.989200185614855" width="54.338857805273506"><g><svg xmlns="http://www.w3.org/2000/svg" xmlns:xlink="http://www.w3.org/1999/xlink" version="1.1" x="0" y="0" viewBox="5.443 15.316 89.501 69.16" enable-background="new 0 0 100 100" xml:space="preserve" height="41.989200185614855" width="54.338857805273506" class="icon-icon-0" data-fill-palette-color="accent" id="icon-0"><path d="M87.62 33.304V36.206C90.127 36.658 92.043 38.847 92.043 41.486L92.037 80.795 83.038 71.793H38.143C35.518 71.793 33.334 69.9 32.867 67.413H29.965C30.463 71.504 33.918 74.695 38.143 74.695H81.837L90.24 83.098C91.181 84.039 91.992 84.476 92.797 84.476 94.137 84.476 94.891 83.308 94.944 82.089V41.486C94.944 37.247 91.731 33.782 87.62 33.304" fill="#3b1898" data-fill-palette-color="accent"></path><path d="M76.014 64.512A8.704 8.704 0 0 0 84.718 55.807V24.021A8.704 8.704 0 0 0 76.014 15.316H14.148A8.705 8.705 0 0 0 5.443 24.021V75.789S5.564 78.486 8.284 75.766L19.54 64.512z" fill="#3b1898" data-fill-palette-color="accent"></path></svg></g></svg></g><g></g></svg></g></svg></g></svg></g></svg></g><defs></defs></svg><rect width="320" height="360" fill="none" stroke="none" visibility="hidden"></rect></g></svg></g></svg>